<?xml version="1.0" encoding="UTF-8" standalone="no"?>
<!DOCTYPE svg PUBLIC "-//W3C//DTD SVG 1.1//EN" "http://www.w3.org/Graphics/SVG/1.1/DTD/svg11.dtd">
<svg width="100%" height="100%" viewBox="0 0 1080 1080" version="1.1" xmlns="http://www.w3.org/2000/svg" xmlns:xlink="http://www.w3.org/1999/xlink" xml:space="preserve" xmlns:serif="http://www.serif.com/" style="fill-rule:evenodd;clip-rule:evenodd;stroke-linecap:round;stroke-linejoin:round;stroke-miterlimit:1.5;">
    <g transform="matrix(1.16921,0,0,1.16921,-91.372,-91.372)">
        <circle cx="540" cy="540" r="461.851" style="fill:url(#_Linear1);"/>
    </g>
    <g transform="matrix(1.52138,0,0,2.00906,-8.12757,-367.789)">
        <path d="M568.866,376.662C568.866,349.074 539.287,326.675 502.855,326.675L284.263,326.675C247.831,326.675 218.253,349.074 218.253,376.662L218.253,476.636C218.253,504.225 247.831,526.623 284.263,526.623L502.855,526.623C539.287,526.623 568.866,504.225 568.866,476.636L568.866,376.662Z" style="fill:url(#_Linear2);stroke:white;stroke-width:16.84px;"/>
    </g>
    <g transform="matrix(1.52138,0,0,2.00906,-109.378,-266.539)">
        <path d="M568.866,376.662C568.866,349.074 539.287,326.675 502.855,326.675L284.263,326.675C247.831,326.675 218.253,349.074 218.253,376.662L218.253,476.636C218.253,504.225 247.831,526.623 284.263,526.623L502.855,526.623C539.287,526.623 568.866,504.225 568.866,476.636L568.866,376.662Z" style="fill:url(#_Linear3);stroke:white;stroke-width:16.84px;"/>
    </g>
    <defs>
        <linearGradient id="_Linear1" x1="0" y1="0" x2="1" y2="0" gradientUnits="userSpaceOnUse" gradientTransform="matrix(1080,-1080,1080,1080,0,1080)"><stop offset="0" style="stop-color:rgb(48,100,233);stop-opacity:1"/><stop offset="1" style="stop-color:rgb(104,12,223);stop-opacity:1"/></linearGradient>
        <linearGradient id="_Linear2" x1="0" y1="0" x2="1" y2="0" gradientUnits="userSpaceOnUse" gradientTransform="matrix(830,-628.525,830,628.525,-54.7164,766.11)"><stop offset="0" style="stop-color:rgb(48,100,233);stop-opacity:1"/><stop offset="1" style="stop-color:rgb(104,12,223);stop-opacity:1"/></linearGradient>
        <linearGradient id="_Linear3" x1="0" y1="0" x2="1" y2="0" gradientUnits="userSpaceOnUse" gradientTransform="matrix(830,-628.525,830,628.525,11.8351,715.713)"><stop offset="0" style="stop-color:rgb(48,100,233);stop-opacity:1"/><stop offset="1" style="stop-color:rgb(104,12,223);stop-opacity:1"/></linearGradient>
    </defs>
</svg>
